<mxfile type="github" version="12.9.8" host="app.diagrams.net" modified="2020-04-07T16:39:07.379Z" agent="5.0 (Windows NT 10.0; Win64; x64) AppleWebKit/537.36 (KHTML, like Gecko) Chrome/70.0.3538.102 Safari/537.36 Edge/18.18363" etag="yXQAkASDTYjjEodbTysP" pages="3">
  <diagram id="NNECZiqNOSkTc29g-7aL" name="Modèle Game">
    <mxGraphModel grid="1" dx="2238" dy="2216" gridSize="10" guides="1" tooltips="1" connect="1" arrows="1" fold="1" page="0" pageScale="1" pageWidth="827" pageHeight="1169" math="0" shadow="0">
      <root>
        <mxCell id="0" />
        <mxCell id="1" parent="0" />
        <mxCell id="-blke6RGVs8M9DFogeQN-33" parent="1" edge="1" target="-blke6RGVs8M9DFogeQN-32" source="-blke6RGVs8M9DFogeQN-1" style="edgeStyle=elbowEdgeStyle;rounded=0;orthogonalLoop=1;jettySize=auto;html=1;exitX=0.75;exitY=0;exitDx=0;exitDy=0;entryX=0.459;entryY=1.038;entryDx=0;entryDy=0;endArrow=diamondThin;endFill=1;endSize=12;startSize=12;elbow=vertical;entryPerimeter=0;">
          <mxGeometry as="geometry" relative="1">
            <Array as="points">
              <mxPoint y="30" x="620" />
              <mxPoint x="610" />
            </Array>
          </mxGeometry>
        </mxCell>
        <mxCell id="-blke6RGVs8M9DFogeQN-45" value="" parent="1" edge="1" target="-blke6RGVs8M9DFogeQN-4" source="-blke6RGVs8M9DFogeQN-35" style="endArrow=block;html=1;exitX=0.5;exitY=0;exitDx=0;exitDy=0;entryX=0.5;entryY=1.01;entryDx=0;entryDy=0;entryPerimeter=0;endFill=0;edgeStyle=elbowEdgeStyle;elbow=vertical;endSize=12;">
          <mxGeometry width="50" height="50" as="geometry" relative="1">
            <mxPoint as="sourcePoint" y="320" x="400" />
            <mxPoint as="targetPoint" y="270" x="450" />
          </mxGeometry>
        </mxCell>
        <mxCell id="4bugIhrhgZ2t9Fx5-nUz-19" value="" parent="1" edge="1" target="-blke6RGVs8M9DFogeQN-28" source="-blke6RGVs8M9DFogeQN-1" style="endArrow=diamondThin;html=1;entryX=0.457;entryY=1.012;entryDx=0;entryDy=0;endFill=1;entryPerimeter=0;exitX=0.5;exitY=0;exitDx=0;exitDy=0;endSize=12;edgeStyle=elbowEdgeStyle;elbow=vertical;startSize=12;rounded=0;">
          <mxGeometry width="50" height="50" as="geometry" relative="1">
            <mxPoint as="sourcePoint" y="60" x="490" />
            <mxPoint as="targetPoint" y="84" x="800" />
            <Array as="points">
              <mxPoint y="10" x="570" />
              <mxPoint y="-20" x="560" />
              <mxPoint x="500" />
            </Array>
          </mxGeometry>
        </mxCell>
        <mxCell id="4bugIhrhgZ2t9Fx5-nUz-33" value="" parent="1" edge="1" target="4bugIhrhgZ2t9Fx5-nUz-29" source="4bugIhrhgZ2t9Fx5-nUz-26" style="edgeStyle=elbowEdgeStyle;rounded=0;orthogonalLoop=1;jettySize=auto;html=1;endArrow=none;endFill=0;startArrow=block;startFill=0;endSize=12;startSize=12;elbow=vertical;exitX=0.222;exitY=1.003;exitDx=0;exitDy=0;exitPerimeter=0;">
          <mxGeometry as="geometry" relative="1" />
        </mxCell>
        <mxCell id="4bugIhrhgZ2t9Fx5-nUz-38" value="" parent="1" edge="1" target="4bugIhrhgZ2t9Fx5-nUz-34" source="4bugIhrhgZ2t9Fx5-nUz-23" style="edgeStyle=elbowEdgeStyle;rounded=0;orthogonalLoop=1;jettySize=auto;html=1;startArrow=block;startFill=0;endArrow=none;endFill=0;endSize=12;startSize=12;">
          <mxGeometry as="geometry" relative="1" />
        </mxCell>
        <mxCell id="4bugIhrhgZ2t9Fx5-nUz-40" parent="1" edge="1" target="-blke6RGVs8M9DFogeQN-29" source="4bugIhrhgZ2t9Fx5-nUz-74" style="edgeStyle=elbowEdgeStyle;rounded=0;orthogonalLoop=1;jettySize=auto;html=1;entryX=0.5;entryY=0;entryDx=0;entryDy=0;startArrow=none;startFill=0;endArrow=none;endFill=0;elbow=vertical;endSize=12;startSize=12;exitX=0.486;exitY=1.002;exitDx=0;exitDy=0;exitPerimeter=0;">
          <mxGeometry as="geometry" relative="1">
            <mxPoint as="sourcePoint" y="-106" x="730" />
            <Array as="points">
              <mxPoint y="-480" x="750" />
            </Array>
          </mxGeometry>
        </mxCell>
        <mxCell id="4bugIhrhgZ2t9Fx5-nUz-43" parent="1" edge="1" target="-blke6RGVs8M9DFogeQN-59" source="4bugIhrhgZ2t9Fx5-nUz-23" style="edgeStyle=elbowEdgeStyle;rounded=0;orthogonalLoop=1;jettySize=auto;html=1;exitX=0.5;exitY=0;exitDx=0;exitDy=0;entryX=0.467;entryY=1.06;entryDx=0;entryDy=0;startArrow=none;startFill=0;endArrow=block;endFill=0;dashed=1;entryPerimeter=0;elbow=vertical;endSize=12;startSize=12;">
          <mxGeometry as="geometry" relative="1">
            <Array as="points">
              <mxPoint y="-40" x="-90" />
              <mxPoint y="-20" x="-100" />
              <mxPoint x="-80" />
              <mxPoint y="-40" x="-90" />
            </Array>
          </mxGeometry>
        </mxCell>
        <mxCell id="4bugIhrhgZ2t9Fx5-nUz-50" parent="1" edge="1" target="-blke6RGVs8M9DFogeQN-80" source="-blke6RGVs8M9DFogeQN-73" style="edgeStyle=elbowEdgeStyle;rounded=0;orthogonalLoop=1;jettySize=auto;elbow=vertical;html=1;exitX=0.5;exitY=0;exitDx=0;exitDy=0;entryX=0.51;entryY=1.001;entryDx=0;entryDy=0;entryPerimeter=0;dashed=1;startArrow=none;startFill=0;endArrow=block;endFill=0;endSize=12;">
          <mxGeometry as="geometry" relative="1">
            <Array as="points">
              <mxPoint y="-40" x="-970" />
            </Array>
          </mxGeometry>
        </mxCell>
        <mxCell id="4bugIhrhgZ2t9Fx5-nUz-51" parent="1" edge="1" target="-blke6RGVs8M9DFogeQN-63" source="-blke6RGVs8M9DFogeQN-73" style="edgeStyle=elbowEdgeStyle;rounded=0;orthogonalLoop=1;jettySize=auto;elbow=vertical;html=1;exitX=0.75;exitY=0;exitDx=0;exitDy=0;dashed=1;startArrow=none;startFill=0;endArrow=block;endFill=0;endSize=12;entryX=0.194;entryY=0.962;entryDx=0;entryDy=0;entryPerimeter=0;">
          <mxGeometry as="geometry" relative="1">
            <mxPoint as="targetPoint" y="-25" x="-200" />
            <Array as="points">
              <mxPoint y="-10" x="-560" />
              <mxPoint y="-40" x="-410" />
              <mxPoint y="-26" x="-200" />
            </Array>
          </mxGeometry>
        </mxCell>
        <mxCell id="4bugIhrhgZ2t9Fx5-nUz-52" parent="1" edge="1" target="4bugIhrhgZ2t9Fx5-nUz-4" source="-blke6RGVs8M9DFogeQN-1" style="edgeStyle=elbowEdgeStyle;rounded=0;orthogonalLoop=1;jettySize=auto;elbow=vertical;html=1;exitX=0.25;exitY=0;exitDx=0;exitDy=0;entryX=0.444;entryY=1.025;entryDx=0;entryDy=0;entryPerimeter=0;dashed=1;startArrow=none;startFill=0;startSize=12;endArrow=block;endFill=0;endSize=12;strokeWidth=1;">
          <mxGeometry as="geometry" relative="1">
            <Array as="points">
              <mxPoint x="340" />
            </Array>
          </mxGeometry>
        </mxCell>
        <mxCell id="4bugIhrhgZ2t9Fx5-nUz-48" value="" parent="1" edge="1" target="-blke6RGVs8M9DFogeQN-63" source="4bugIhrhgZ2t9Fx5-nUz-23" style="endArrow=block;endFill=0;endSize=12;html=1;exitX=0.25;exitY=0;exitDx=0;exitDy=0;entryX=0.638;entryY=1.038;entryDx=0;entryDy=0;entryPerimeter=0;edgeStyle=elbowEdgeStyle;elbow=vertical;rounded=0;dashed=1;strokeWidth=1;">
          <mxGeometry width="160" as="geometry" relative="1">
            <mxPoint as="sourcePoint" y="10" x="-100" />
            <mxPoint as="targetPoint" y="-90" x="3" />
            <Array as="points">
              <mxPoint x="-240" />
            </Array>
          </mxGeometry>
        </mxCell>
        <mxCell id="4bugIhrhgZ2t9Fx5-nUz-57" parent="1" edge="1" target="4bugIhrhgZ2t9Fx5-nUz-56" source="4bugIhrhgZ2t9Fx5-nUz-23" style="edgeStyle=elbowEdgeStyle;rounded=0;orthogonalLoop=1;jettySize=auto;elbow=vertical;html=1;exitX=0.25;exitY=0;exitDx=0;exitDy=0;entryX=0.647;entryY=1;entryDx=0;entryDy=0;entryPerimeter=0;dashed=1;startArrow=none;startFill=0;startSize=12;endArrow=block;endFill=0;endSize=12;strokeWidth=1;">
          <mxGeometry as="geometry" relative="1">
            <Array as="points">
              <mxPoint y="-30" x="-250" />
              <mxPoint y="-50" x="-230" />
            </Array>
          </mxGeometry>
        </mxCell>
        <mxCell id="4bugIhrhgZ2t9Fx5-nUz-23" value="&quot;abstract&quot; Tower" parent="1" style="swimlane;fontStyle=1;align=center;verticalAlign=top;childLayout=stackLayout;horizontal=1;startSize=26;horizontalStack=0;resizeParent=1;resizeParentMax=0;resizeLast=0;collapsible=1;marginBottom=0;" vertex="1">
          <mxGeometry width="380" height="390" as="geometry" y="60" x="-220" />
        </mxCell>
        <mxCell id="4bugIhrhgZ2t9Fx5-nUz-24" value="- position: Position&#xa;- level: int&#xa;- price: int&#xa;- range: double&#xa;- fireRate: int&#xa;- damageDealt: int&#xa;- Targets: ArrayList&#xa;- maxTargetNumber: int&#xa;- levels&#xa;(+ health: int)" parent="4bugIhrhgZ2t9Fx5-nUz-23" style="text;strokeColor=none;fillColor=none;align=left;verticalAlign=top;spacingLeft=4;spacingRight=4;overflow=hidden;rotatable=0;points=[[0,0.5],[1,0.5]];portConstraint=eastwest;" vertex="1">
          <mxGeometry width="380" height="164" as="geometry" y="26" />
        </mxCell>
        <mxCell id="4bugIhrhgZ2t9Fx5-nUz-25" value="" parent="4bugIhrhgZ2t9Fx5-nUz-23" style="line;strokeWidth=1;fillColor=none;align=left;verticalAlign=middle;spacingTop=-1;spacingLeft=3;spacingRight=3;rotatable=0;labelPosition=right;points=[];portConstraint=eastwest;" vertex="1">
          <mxGeometry width="380" height="8" as="geometry" y="190" />
        </mxCell>
        <mxCell id="4bugIhrhgZ2t9Fx5-nUz-26" value="+ toString(): String&#xa;+ getPos(): Position&#xa;+ getLevel(): int&#xa;+ getPrice(): int&#xa;+ getLowerRange(): double&#xa;+ getUpperRange(): double&#xa;+ dealDamage(npc: NPC): &#xa;+ findAllPotentialTargets(ArrayList&lt;NPC&gt;): ArrayList&lt;NPC&gt;&#xa;+ canBeLeveledUp(): boolean&#xa;+ levelUp(): void" parent="4bugIhrhgZ2t9Fx5-nUz-23" style="text;strokeColor=none;fillColor=none;align=left;verticalAlign=top;spacingLeft=4;spacingRight=4;overflow=hidden;rotatable=0;points=[[0,0.5],[1,0.5]];portConstraint=eastwest;" vertex="1">
          <mxGeometry width="380" height="192" as="geometry" y="198" />
        </mxCell>
        <mxCell id="4bugIhrhgZ2t9Fx5-nUz-63" parent="1" edge="1" target="-blke6RGVs8M9DFogeQN-88" source="-blke6RGVs8M9DFogeQN-77" style="edgeStyle=elbowEdgeStyle;rounded=0;orthogonalLoop=1;jettySize=auto;elbow=vertical;html=1;exitX=0.5;exitY=0;exitDx=0;exitDy=0;entryX=0.144;entryY=1.096;entryDx=0;entryDy=0;entryPerimeter=0;startArrow=none;startFill=0;startSize=12;endArrow=none;endFill=0;endSize=12;strokeWidth=1;">
          <mxGeometry as="geometry" relative="1">
            <Array as="points">
              <mxPoint y="-650" x="-610" />
              <mxPoint y="-580" x="-600" />
            </Array>
          </mxGeometry>
        </mxCell>
        <mxCell id="-blke6RGVs8M9DFogeQN-77" value="&quot;Interface&quot; ProducesGold" parent="1" style="swimlane;fontStyle=1;align=center;verticalAlign=top;childLayout=stackLayout;horizontal=1;startSize=26;horizontalStack=0;resizeParent=1;resizeParentMax=0;resizeLast=0;collapsible=1;marginBottom=0;" vertex="1">
          <mxGeometry width="200" height="140" as="geometry" y="-210" x="-870" />
        </mxCell>
        <mxCell id="-blke6RGVs8M9DFogeQN-78" value=" " parent="-blke6RGVs8M9DFogeQN-77" style="text;strokeColor=none;fillColor=none;align=left;verticalAlign=top;spacingLeft=4;spacingRight=4;overflow=hidden;rotatable=0;points=[[0,0.5],[1,0.5]];portConstraint=eastwest;" vertex="1">
          <mxGeometry width="200" height="26" as="geometry" y="26" />
        </mxCell>
        <mxCell id="-blke6RGVs8M9DFogeQN-79" value="" parent="-blke6RGVs8M9DFogeQN-77" style="line;strokeWidth=1;fillColor=none;align=left;verticalAlign=middle;spacingTop=-1;spacingLeft=3;spacingRight=3;rotatable=0;labelPosition=right;points=[];portConstraint=eastwest;" vertex="1">
          <mxGeometry width="200" height="8" as="geometry" y="52" />
        </mxCell>
        <mxCell id="-blke6RGVs8M9DFogeQN-80" value="+ getProductionRate(): int&#xa;+ produceGold(): void&#xa;+ retrieveGold(): int" parent="-blke6RGVs8M9DFogeQN-77" style="text;strokeColor=none;fillColor=none;align=left;verticalAlign=top;spacingLeft=4;spacingRight=4;overflow=hidden;rotatable=0;points=[[0,0.5],[1,0.5]];portConstraint=eastwest;" vertex="1">
          <mxGeometry width="200" height="80" as="geometry" y="60" />
        </mxCell>
        <mxCell id="-blke6RGVs8M9DFogeQN-60" value="&quot;Interface&quot; Buyable" parent="1" style="swimlane;fontStyle=1;align=center;verticalAlign=top;childLayout=stackLayout;horizontal=1;startSize=26;horizontalStack=0;resizeParent=1;resizeParentMax=0;resizeLast=0;collapsible=1;marginBottom=0;" vertex="1">
          <mxGeometry width="160" height="140" as="geometry" y="-210" x="-630" />
        </mxCell>
        <mxCell id="-blke6RGVs8M9DFogeQN-61" value=" " parent="-blke6RGVs8M9DFogeQN-60" style="text;strokeColor=none;fillColor=none;align=left;verticalAlign=top;spacingLeft=4;spacingRight=4;overflow=hidden;rotatable=0;points=[[0,0.5],[1,0.5]];portConstraint=eastwest;" vertex="1">
          <mxGeometry width="160" height="26" as="geometry" y="26" />
        </mxCell>
        <mxCell id="-blke6RGVs8M9DFogeQN-62" value="" parent="-blke6RGVs8M9DFogeQN-60" style="line;strokeWidth=1;fillColor=none;align=left;verticalAlign=middle;spacingTop=-1;spacingLeft=3;spacingRight=3;rotatable=0;labelPosition=right;points=[];portConstraint=eastwest;" vertex="1">
          <mxGeometry width="160" height="8" as="geometry" y="52" />
        </mxCell>
        <mxCell id="-blke6RGVs8M9DFogeQN-63" value="+ getPrice(): int&#xa;" parent="-blke6RGVs8M9DFogeQN-60" style="text;strokeColor=none;fillColor=none;align=left;verticalAlign=top;spacingLeft=4;spacingRight=4;overflow=hidden;rotatable=0;points=[[0,0.5],[1,0.5]];portConstraint=eastwest;" vertex="1">
          <mxGeometry width="160" height="80" as="geometry" y="60" />
        </mxCell>
        <mxCell id="4bugIhrhgZ2t9Fx5-nUz-58" parent="1" edge="1" target="4bugIhrhgZ2t9Fx5-nUz-56" source="-blke6RGVs8M9DFogeQN-73" style="edgeStyle=elbowEdgeStyle;rounded=0;orthogonalLoop=1;jettySize=auto;elbow=vertical;html=1;exitX=1;exitY=0;exitDx=0;exitDy=0;entryX=0.236;entryY=1.032;entryDx=0;entryDy=0;entryPerimeter=0;dashed=1;startArrow=none;startFill=0;startSize=12;endArrow=block;endFill=0;endSize=12;strokeWidth=1;">
          <mxGeometry as="geometry" relative="1">
            <Array as="points">
              <mxPoint y="30" x="-460" />
            </Array>
          </mxGeometry>
        </mxCell>
        <mxCell id="4bugIhrhgZ2t9Fx5-nUz-64" parent="1" edge="1" target="-blke6RGVs8M9DFogeQN-88" source="-blke6RGVs8M9DFogeQN-73" style="edgeStyle=elbowEdgeStyle;rounded=0;orthogonalLoop=1;jettySize=auto;elbow=vertical;html=1;entryX=0.063;entryY=1.061;entryDx=0;entryDy=0;entryPerimeter=0;startArrow=none;startFill=0;startSize=12;endArrow=none;endFill=0;endSize=12;strokeWidth=1;exitX=0.25;exitY=0;exitDx=0;exitDy=0;">
          <mxGeometry as="geometry" relative="1">
            <mxPoint as="sourcePoint" y="50" x="-1050" />
            <Array as="points">
              <mxPoint y="-670" x="-610" />
              <mxPoint y="-610" x="-610" />
              <mxPoint y="-380" x="-820" />
              <mxPoint y="-310" x="-330" />
              <mxPoint y="-290" x="-360" />
              <mxPoint y="-240" x="-650" />
              <mxPoint y="-270" x="-450" />
            </Array>
          </mxGeometry>
        </mxCell>
        <mxCell id="4bugIhrhgZ2t9Fx5-nUz-53" value="&quot;Interface&quot; UpgradeLevel" parent="1" style="swimlane;fontStyle=1;align=center;verticalAlign=top;childLayout=stackLayout;horizontal=1;startSize=26;horizontalStack=0;resizeParent=1;resizeParentMax=0;resizeLast=0;collapsible=1;marginBottom=0;" vertex="1">
          <mxGeometry width="180" height="140" as="geometry" y="-210" x="-410" />
        </mxCell>
        <mxCell id="4bugIhrhgZ2t9Fx5-nUz-54" value=" " parent="4bugIhrhgZ2t9Fx5-nUz-53" style="text;strokeColor=none;fillColor=none;align=left;verticalAlign=top;spacingLeft=4;spacingRight=4;overflow=hidden;rotatable=0;points=[[0,0.5],[1,0.5]];portConstraint=eastwest;" vertex="1">
          <mxGeometry width="180" height="26" as="geometry" y="26" />
        </mxCell>
        <mxCell id="4bugIhrhgZ2t9Fx5-nUz-55" value="" parent="4bugIhrhgZ2t9Fx5-nUz-53" style="line;strokeWidth=1;fillColor=none;align=left;verticalAlign=middle;spacingTop=-1;spacingLeft=3;spacingRight=3;rotatable=0;labelPosition=right;points=[];portConstraint=eastwest;" vertex="1">
          <mxGeometry width="180" height="8" as="geometry" y="52" />
        </mxCell>
        <mxCell id="4bugIhrhgZ2t9Fx5-nUz-56" value="+ getUpgradeLevel(): int&#xa;+ levelUp(): int&#xa;+ canBeLeveledUp(): boolean" parent="4bugIhrhgZ2t9Fx5-nUz-53" style="text;strokeColor=none;fillColor=none;align=left;verticalAlign=top;spacingLeft=4;spacingRight=4;overflow=hidden;rotatable=0;points=[[0,0.5],[1,0.5]];portConstraint=eastwest;" vertex="1">
          <mxGeometry width="180" height="80" as="geometry" y="60" />
        </mxCell>
        <mxCell id="-blke6RGVs8M9DFogeQN-73" value="GoldMine" parent="1" style="swimlane;fontStyle=1;align=center;verticalAlign=top;childLayout=stackLayout;horizontal=1;startSize=26;horizontalStack=0;resizeParent=1;resizeParentMax=0;resizeLast=0;collapsible=1;marginBottom=0;" vertex="1">
          <mxGeometry width="350" height="310" as="geometry" y="60" x="-1180" />
        </mxCell>
        <mxCell id="-blke6RGVs8M9DFogeQN-74" value="- position: Position&#xa;- level: int&#xa;- price: int&#xa;- productionRate: int&#xa;- goldStorage: int&#xa;- maxGoldStorage: int&#xa;(- health: int)" parent="-blke6RGVs8M9DFogeQN-73" style="text;strokeColor=none;fillColor=none;align=left;verticalAlign=top;spacingLeft=4;spacingRight=4;overflow=hidden;rotatable=0;points=[[0,0.5],[1,0.5]];portConstraint=eastwest;" vertex="1">
          <mxGeometry width="350" height="104" as="geometry" y="26" />
        </mxCell>
        <mxCell id="-blke6RGVs8M9DFogeQN-75" value="" parent="-blke6RGVs8M9DFogeQN-73" style="line;strokeWidth=1;fillColor=none;align=left;verticalAlign=middle;spacingTop=-1;spacingLeft=3;spacingRight=3;rotatable=0;labelPosition=right;points=[];portConstraint=eastwest;" vertex="1">
          <mxGeometry width="350" height="8" as="geometry" y="130" />
        </mxCell>
        <mxCell id="-blke6RGVs8M9DFogeQN-76" value="+ toString(): String&#xa;+ getPos(): Position&#xa;+ getLevel(): int&#xa;+ getPrice(): int&#xa;+ getProductionRate(): int&#xa;- increaseMaxGoldStorage(): void&#xa;- storeGold(): void&#xa;+ produceGold(): void&#xa;+ retrieveGold(): int&#xa;+ canBeLeveledUp(): boolean&#xa;+ levelUp(): void" parent="-blke6RGVs8M9DFogeQN-73" style="text;strokeColor=none;fillColor=none;align=left;verticalAlign=top;spacingLeft=4;spacingRight=4;overflow=hidden;rotatable=0;points=[[0,0.5],[1,0.5]];portConstraint=eastwest;" vertex="1">
          <mxGeometry width="350" height="172" as="geometry" y="138" />
        </mxCell>
        <mxCell id="-blke6RGVs8M9DFogeQN-1" value="&quot;abstract&quot; NPC" parent="1" style="swimlane;fontStyle=1;align=center;verticalAlign=top;childLayout=stackLayout;horizontal=1;startSize=26;horizontalStack=0;resizeParent=1;resizeParentMax=0;resizeLast=0;collapsible=1;marginBottom=0;" vertex="1">
          <mxGeometry width="370" height="280" as="geometry" y="60" x="300">
            <mxRectangle width="120" height="26" as="alternateBounds" y="70" x="300" />
          </mxGeometry>
        </mxCell>
        <mxCell id="-blke6RGVs8M9DFogeQN-2" value="- position: Position&#xa;- path: Path&#xa;- speed: float&#xa;- health: int&#xa;- goldLoot: int&#xa;(- inventaire: Arraylist&lt;Weapon&gt;)&#xa;" parent="-blke6RGVs8M9DFogeQN-1" style="text;strokeColor=none;fillColor=none;align=left;verticalAlign=top;spacingLeft=4;spacingRight=4;overflow=hidden;rotatable=0;points=[[0,0.5],[1,0.5]];portConstraint=eastwest;" vertex="1">
          <mxGeometry width="370" height="94" as="geometry" y="26" />
        </mxCell>
        <mxCell id="-blke6RGVs8M9DFogeQN-3" value="" parent="-blke6RGVs8M9DFogeQN-1" style="line;strokeWidth=1;fillColor=none;align=left;verticalAlign=middle;spacingTop=-1;spacingLeft=3;spacingRight=3;rotatable=0;labelPosition=right;points=[];portConstraint=eastwest;" vertex="1">
          <mxGeometry width="370" height="8" as="geometry" y="120" />
        </mxCell>
        <mxCell id="-blke6RGVs8M9DFogeQN-4" value="&quot;constructor&quot; NPC()&#xa;+ getPos(): Position&#xa;+ getHealth(): int&#xa;+ getSpeed(): float&#xa;+ pathfinding(pos0: Position, end_pos: Position, map: Map): Path&#xa;+ killNPC(): void&#xa;+ move(): void&#xa;+ hit(int damage): void&#xa;+ " parent="-blke6RGVs8M9DFogeQN-1" style="text;strokeColor=none;fillColor=none;align=left;verticalAlign=top;spacingLeft=4;spacingRight=4;overflow=hidden;rotatable=0;points=[[0,0.5],[1,0.5]];portConstraint=eastwest;" vertex="1">
          <mxGeometry width="370" height="152" as="geometry" y="128" />
        </mxCell>
        <mxCell id="-blke6RGVs8M9DFogeQN-35" value="Generic" parent="1" style="swimlane;fontStyle=1;align=center;verticalAlign=top;childLayout=stackLayout;horizontal=1;startSize=26;horizontalStack=0;resizeParent=1;resizeParentMax=0;resizeLast=0;collapsible=1;marginBottom=0;" vertex="1">
          <mxGeometry width="350" height="190" as="geometry" y="510" x="310" />
        </mxCell>
        <mxCell id="-blke6RGVs8M9DFogeQN-36" value="&#xa;" parent="-blke6RGVs8M9DFogeQN-35" style="text;strokeColor=none;fillColor=none;align=left;verticalAlign=top;spacingLeft=4;spacingRight=4;overflow=hidden;rotatable=0;points=[[0,0.5],[1,0.5]];portConstraint=eastwest;" vertex="1">
          <mxGeometry width="350" height="94" as="geometry" y="26" />
        </mxCell>
        <mxCell id="-blke6RGVs8M9DFogeQN-37" value="" parent="-blke6RGVs8M9DFogeQN-35" style="line;strokeWidth=1;fillColor=none;align=left;verticalAlign=middle;spacingTop=-1;spacingLeft=3;spacingRight=3;rotatable=0;labelPosition=right;points=[];portConstraint=eastwest;" vertex="1">
          <mxGeometry width="350" height="8" as="geometry" y="120" />
        </mxCell>
        <mxCell id="-blke6RGVs8M9DFogeQN-38" value="ff" parent="-blke6RGVs8M9DFogeQN-35" style="text;strokeColor=none;fillColor=none;align=left;verticalAlign=top;spacingLeft=4;spacingRight=4;overflow=hidden;rotatable=0;points=[[0,0.5],[1,0.5]];portConstraint=eastwest;" vertex="1">
          <mxGeometry width="350" height="62" as="geometry" y="128" />
        </mxCell>
        <mxCell id="-blke6RGVs8M9DFogeQN-85" value="Game" parent="1" style="swimlane;fontStyle=1;align=center;verticalAlign=top;childLayout=stackLayout;horizontal=1;startSize=26;horizontalStack=0;resizeParent=1;resizeParentMax=0;resizeLast=0;collapsible=1;marginBottom=0;" vertex="1">
          <mxGeometry width="350" height="280" as="geometry" y="-1000" x="-480" />
        </mxCell>
        <mxCell id="-blke6RGVs8M9DFogeQN-86" value="- health: int&#xa;- initHealth: int&#xa;- level: int&#xa;- round: int&#xa;- map: Map&#xa;- towers: ArrayList&lt;Tower&gt;&#xa;- goldMines: ArrayList&lt;GoldMine&gt;&#xa;- NPCs: ArrayList&lt;NPC&gt;" parent="-blke6RGVs8M9DFogeQN-85" style="text;strokeColor=none;fillColor=none;align=left;verticalAlign=top;spacingLeft=4;spacingRight=4;overflow=hidden;rotatable=0;points=[[0,0.5],[1,0.5]];portConstraint=eastwest;" vertex="1">
          <mxGeometry width="350" height="124" as="geometry" y="26" />
        </mxCell>
        <mxCell id="-blke6RGVs8M9DFogeQN-87" value="" parent="-blke6RGVs8M9DFogeQN-85" style="line;strokeWidth=1;fillColor=none;align=left;verticalAlign=middle;spacingTop=-1;spacingLeft=3;spacingRight=3;rotatable=0;labelPosition=right;points=[];portConstraint=eastwest;" vertex="1">
          <mxGeometry width="350" height="8" as="geometry" y="150" />
        </mxCell>
        <mxCell id="-blke6RGVs8M9DFogeQN-88" value="+ initializeLevel(): void&#xa;" parent="-blke6RGVs8M9DFogeQN-85" style="text;strokeColor=none;fillColor=none;align=left;verticalAlign=top;spacingLeft=4;spacingRight=4;overflow=hidden;rotatable=0;points=[[0,0.5],[1,0.5]];portConstraint=eastwest;" vertex="1">
          <mxGeometry width="350" height="122" as="geometry" y="158" />
        </mxCell>
        <mxCell id="4bugIhrhgZ2t9Fx5-nUz-67" value="Shop" parent="1" style="swimlane;fontStyle=1;align=center;verticalAlign=top;childLayout=stackLayout;horizontal=1;startSize=26;horizontalStack=0;resizeParent=1;resizeParentMax=0;resizeLast=0;collapsible=1;marginBottom=0;" vertex="1">
          <mxGeometry width="350" height="280" as="geometry" y="-600" x="-480">
            <mxRectangle width="60" height="26" as="alternateBounds" y="-600" x="-480" />
          </mxGeometry>
        </mxCell>
        <mxCell id="4bugIhrhgZ2t9Fx5-nUz-68" value="- " parent="4bugIhrhgZ2t9Fx5-nUz-67" style="text;strokeColor=none;fillColor=none;align=left;verticalAlign=top;spacingLeft=4;spacingRight=4;overflow=hidden;rotatable=0;points=[[0,0.5],[1,0.5]];portConstraint=eastwest;" vertex="1">
          <mxGeometry width="350" height="104" as="geometry" y="26" />
        </mxCell>
        <mxCell id="4bugIhrhgZ2t9Fx5-nUz-69" value="" parent="4bugIhrhgZ2t9Fx5-nUz-67" style="line;strokeWidth=1;fillColor=none;align=left;verticalAlign=middle;spacingTop=-1;spacingLeft=3;spacingRight=3;rotatable=0;labelPosition=right;points=[];portConstraint=eastwest;" vertex="1">
          <mxGeometry width="350" height="8" as="geometry" y="130" />
        </mxCell>
        <mxCell id="4bugIhrhgZ2t9Fx5-nUz-70" value="+ buy(Postion: position, Player: player, String: type): Tower&#xa;+ buyable(): ArrayList&lt;String&gt;" parent="4bugIhrhgZ2t9Fx5-nUz-67" style="text;strokeColor=none;fillColor=none;align=left;verticalAlign=top;spacingLeft=4;spacingRight=4;overflow=hidden;rotatable=0;points=[[0,0.5],[1,0.5]];portConstraint=eastwest;" vertex="1">
          <mxGeometry width="350" height="142" as="geometry" y="138" />
        </mxCell>
        <mxCell id="4bugIhrhgZ2t9Fx5-nUz-59" value="Player" parent="1" style="swimlane;fontStyle=1;align=center;verticalAlign=top;childLayout=stackLayout;horizontal=1;startSize=26;horizontalStack=0;resizeParent=1;resizeParentMax=0;resizeLast=0;collapsible=1;marginBottom=0;" vertex="1">
          <mxGeometry width="350" height="280" as="geometry" y="-1000" x="60" />
        </mxCell>
        <mxCell id="4bugIhrhgZ2t9Fx5-nUz-60" value="- score: int&#xa;- score: int&#xa;- gold: int" parent="4bugIhrhgZ2t9Fx5-nUz-59" style="text;strokeColor=none;fillColor=none;align=left;verticalAlign=top;spacingLeft=4;spacingRight=4;overflow=hidden;rotatable=0;points=[[0,0.5],[1,0.5]];portConstraint=eastwest;" vertex="1">
          <mxGeometry width="350" height="124" as="geometry" y="26" />
        </mxCell>
        <mxCell id="4bugIhrhgZ2t9Fx5-nUz-61" value="" parent="4bugIhrhgZ2t9Fx5-nUz-59" style="line;strokeWidth=1;fillColor=none;align=left;verticalAlign=middle;spacingTop=-1;spacingLeft=3;spacingRight=3;rotatable=0;labelPosition=right;points=[];portConstraint=eastwest;" vertex="1">
          <mxGeometry width="350" height="8" as="geometry" y="150" />
        </mxCell>
        <mxCell id="4bugIhrhgZ2t9Fx5-nUz-62" value="+ reinitializeGold(): void&#xa;+ pay(int: amount): &#xa;+ increaseScore(): void&#xa;+ decreaseScore(): Boolean" parent="4bugIhrhgZ2t9Fx5-nUz-59" style="text;strokeColor=none;fillColor=none;align=left;verticalAlign=top;spacingLeft=4;spacingRight=4;overflow=hidden;rotatable=0;points=[[0,0.5],[1,0.5]];portConstraint=eastwest;" vertex="1">
          <mxGeometry width="350" height="122" as="geometry" y="158" />
        </mxCell>
        <mxCell id="-blke6RGVs8M9DFogeQN-29" value="Path" parent="1" style="swimlane;fontStyle=1;align=center;verticalAlign=top;childLayout=stackLayout;horizontal=1;startSize=26;horizontalStack=0;resizeParent=1;resizeParentMax=0;resizeLast=0;collapsible=1;marginBottom=0;" vertex="1">
          <mxGeometry width="180" height="140" as="geometry" y="-210" x="710" />
        </mxCell>
        <mxCell id="-blke6RGVs8M9DFogeQN-30" value="- steps(): ArrayList&lt;Position&gt;" parent="-blke6RGVs8M9DFogeQN-29" style="text;strokeColor=none;fillColor=none;align=left;verticalAlign=top;spacingLeft=4;spacingRight=4;overflow=hidden;rotatable=0;points=[[0,0.5],[1,0.5]];portConstraint=eastwest;" vertex="1">
          <mxGeometry width="180" height="34" as="geometry" y="26" />
        </mxCell>
        <mxCell id="-blke6RGVs8M9DFogeQN-31" value="" parent="-blke6RGVs8M9DFogeQN-29" style="line;strokeWidth=1;fillColor=none;align=left;verticalAlign=middle;spacingTop=-1;spacingLeft=3;spacingRight=3;rotatable=0;labelPosition=right;points=[];portConstraint=eastwest;" vertex="1">
          <mxGeometry width="180" height="8" as="geometry" y="60" />
        </mxCell>
        <mxCell id="-blke6RGVs8M9DFogeQN-32" value="+ getPosX(): double&#xa;+ getPosY(): double&#xa;+ getTileX(): double&#xa;+ getTileY(): double" parent="-blke6RGVs8M9DFogeQN-29" style="text;strokeColor=none;fillColor=none;align=left;verticalAlign=top;spacingLeft=4;spacingRight=4;overflow=hidden;rotatable=0;points=[[0,0.5],[1,0.5]];portConstraint=eastwest;" vertex="1">
          <mxGeometry width="180" height="72" as="geometry" y="68" />
        </mxCell>
        <mxCell id="4bugIhrhgZ2t9Fx5-nUz-92" parent="1" edge="1" target="4bugIhrhgZ2t9Fx5-nUz-78" source="4bugIhrhgZ2t9Fx5-nUz-79" style="edgeStyle=elbowEdgeStyle;rounded=0;orthogonalLoop=1;jettySize=auto;elbow=vertical;html=1;exitX=0.5;exitY=0;exitDx=0;exitDy=0;startArrow=none;startFill=0;startSize=12;endArrow=blockThin;endFill=0;endSize=12;strokeWidth=1;entryX=0.492;entryY=1;entryDx=0;entryDy=0;entryPerimeter=0;">
          <mxGeometry as="geometry" relative="1">
            <mxPoint as="targetPoint" y="-990" x="1590.333333333334" />
          </mxGeometry>
        </mxCell>
        <mxCell id="4bugIhrhgZ2t9Fx5-nUz-91" parent="1" edge="1" target="4bugIhrhgZ2t9Fx5-nUz-78" source="4bugIhrhgZ2t9Fx5-nUz-83" style="edgeStyle=elbowEdgeStyle;rounded=0;orthogonalLoop=1;jettySize=auto;elbow=vertical;html=1;exitX=0.5;exitY=0;exitDx=0;exitDy=0;startArrow=none;startFill=0;startSize=12;endArrow=blockThin;endFill=0;endSize=12;strokeWidth=1;entryX=0.492;entryY=0.999;entryDx=0;entryDy=0;entryPerimeter=0;">
          <mxGeometry as="geometry" relative="1">
            <mxPoint as="targetPoint" y="-989" x="1600" />
          </mxGeometry>
        </mxCell>
        <mxCell id="4bugIhrhgZ2t9Fx5-nUz-93" parent="1" edge="1" target="4bugIhrhgZ2t9Fx5-nUz-78" source="4bugIhrhgZ2t9Fx5-nUz-87" style="edgeStyle=elbowEdgeStyle;rounded=0;orthogonalLoop=1;jettySize=auto;elbow=vertical;html=1;exitX=0.5;exitY=0;exitDx=0;exitDy=0;startArrow=none;startFill=0;startSize=12;endArrow=blockThin;endFill=0;endSize=12;strokeWidth=1;entryX=0.492;entryY=0.999;entryDx=0;entryDy=0;entryPerimeter=0;">
          <mxGeometry as="geometry" relative="1">
            <mxPoint as="targetPoint" y="-990" x="1590" />
          </mxGeometry>
        </mxCell>
        <mxCell id="4bugIhrhgZ2t9Fx5-nUz-94" parent="1" edge="1" target="4bugIhrhgZ2t9Fx5-nUz-76" source="4bugIhrhgZ2t9Fx5-nUz-72" style="edgeStyle=elbowEdgeStyle;rounded=0;orthogonalLoop=1;jettySize=auto;elbow=vertical;html=1;exitX=1;exitY=0.5;exitDx=0;exitDy=0;entryX=0;entryY=0.5;entryDx=0;entryDy=0;startArrow=none;startFill=0;startSize=12;endArrow=none;endFill=0;endSize=12;strokeWidth=1;">
          <mxGeometry as="geometry" relative="1" />
        </mxCell>
        <mxCell id="4bugIhrhgZ2t9Fx5-nUz-83" value="ObstacleTile" parent="1" style="swimlane;fontStyle=1;align=center;verticalAlign=top;childLayout=stackLayout;horizontal=1;startSize=26;horizontalStack=0;resizeParent=1;resizeParentMax=0;resizeLast=0;collapsible=1;marginBottom=0;" vertex="1">
          <mxGeometry width="180" height="140" as="geometry" y="-520" x="960" />
        </mxCell>
        <mxCell id="4bugIhrhgZ2t9Fx5-nUz-84" value=" " parent="4bugIhrhgZ2t9Fx5-nUz-83" style="text;strokeColor=none;fillColor=none;align=left;verticalAlign=top;spacingLeft=4;spacingRight=4;overflow=hidden;rotatable=0;points=[[0,0.5],[1,0.5]];portConstraint=eastwest;" vertex="1">
          <mxGeometry width="180" height="44" as="geometry" y="26" />
        </mxCell>
        <mxCell id="4bugIhrhgZ2t9Fx5-nUz-85" value="" parent="4bugIhrhgZ2t9Fx5-nUz-83" style="line;strokeWidth=1;fillColor=none;align=left;verticalAlign=middle;spacingTop=-1;spacingLeft=3;spacingRight=3;rotatable=0;labelPosition=right;points=[];portConstraint=eastwest;" vertex="1">
          <mxGeometry width="180" height="8" as="geometry" y="70" />
        </mxCell>
        <mxCell id="4bugIhrhgZ2t9Fx5-nUz-86" value=" " parent="4bugIhrhgZ2t9Fx5-nUz-83" style="text;strokeColor=none;fillColor=none;align=left;verticalAlign=top;spacingLeft=4;spacingRight=4;overflow=hidden;rotatable=0;points=[[0,0.5],[1,0.5]];portConstraint=eastwest;" vertex="1">
          <mxGeometry width="180" height="62" as="geometry" y="78" />
        </mxCell>
        <mxCell id="4bugIhrhgZ2t9Fx5-nUz-71" value="Map" parent="1" style="swimlane;fontStyle=1;align=center;verticalAlign=top;childLayout=stackLayout;horizontal=1;startSize=26;horizontalStack=0;resizeParent=1;resizeParentMax=0;resizeLast=0;collapsible=1;marginBottom=0;" vertex="1">
          <mxGeometry width="280" height="260" as="geometry" y="-1000" x="590" />
        </mxCell>
        <mxCell id="4bugIhrhgZ2t9Fx5-nUz-72" value="- widthMetric: double&#xa;- lengthMetric: double&#xa;- widthTiles: double&#xa;- lengthTiles: double&#xa;- metricTileSize: double&#xa;- Tile" parent="4bugIhrhgZ2t9Fx5-nUz-71" style="text;strokeColor=none;fillColor=none;align=left;verticalAlign=top;spacingLeft=4;spacingRight=4;overflow=hidden;rotatable=0;points=[[0,0.5],[1,0.5]];portConstraint=eastwest;" vertex="1">
          <mxGeometry width="280" height="104" as="geometry" y="26" />
        </mxCell>
        <mxCell id="4bugIhrhgZ2t9Fx5-nUz-73" value="" parent="4bugIhrhgZ2t9Fx5-nUz-71" style="line;strokeWidth=1;fillColor=none;align=left;verticalAlign=middle;spacingTop=-1;spacingLeft=3;spacingRight=3;rotatable=0;labelPosition=right;points=[];portConstraint=eastwest;" vertex="1">
          <mxGeometry width="280" height="8" as="geometry" y="130" />
        </mxCell>
        <mxCell id="4bugIhrhgZ2t9Fx5-nUz-74" value="+ Constructor&#xa;+ getMetricTileSize(): double&#xa;+ getLevelWidth():&#xa;+ buildLevel(): &#xa;+ readLevelFile(): &#xa;+ getTile(int:x, int:y):&#xa;+ isInTile(Position: pos): Tile" parent="4bugIhrhgZ2t9Fx5-nUz-71" style="text;strokeColor=none;fillColor=none;align=left;verticalAlign=top;spacingLeft=4;spacingRight=4;overflow=hidden;rotatable=0;points=[[0,0.5],[1,0.5]];portConstraint=eastwest;" vertex="1">
          <mxGeometry width="280" height="122" as="geometry" y="138" />
        </mxCell>
        <mxCell id="4bugIhrhgZ2t9Fx5-nUz-79" value="PathTile" parent="1" style="swimlane;fontStyle=1;align=center;verticalAlign=top;childLayout=stackLayout;horizontal=1;startSize=26;horizontalStack=0;resizeParent=1;resizeParentMax=0;resizeLast=0;collapsible=1;marginBottom=0;" vertex="1">
          <mxGeometry width="180" height="140" as="geometry" y="-520" x="1180" />
        </mxCell>
        <mxCell id="4bugIhrhgZ2t9Fx5-nUz-80" value=" " parent="4bugIhrhgZ2t9Fx5-nUz-79" style="text;strokeColor=none;fillColor=none;align=left;verticalAlign=top;spacingLeft=4;spacingRight=4;overflow=hidden;rotatable=0;points=[[0,0.5],[1,0.5]];portConstraint=eastwest;" vertex="1">
          <mxGeometry width="180" height="54" as="geometry" y="26" />
        </mxCell>
        <mxCell id="4bugIhrhgZ2t9Fx5-nUz-81" value="" parent="4bugIhrhgZ2t9Fx5-nUz-79" style="line;strokeWidth=1;fillColor=none;align=left;verticalAlign=middle;spacingTop=-1;spacingLeft=3;spacingRight=3;rotatable=0;labelPosition=right;points=[];portConstraint=eastwest;" vertex="1">
          <mxGeometry width="180" height="8" as="geometry" y="80" />
        </mxCell>
        <mxCell id="4bugIhrhgZ2t9Fx5-nUz-82" value=" " parent="4bugIhrhgZ2t9Fx5-nUz-79" style="text;strokeColor=none;fillColor=none;align=left;verticalAlign=top;spacingLeft=4;spacingRight=4;overflow=hidden;rotatable=0;points=[[0,0.5],[1,0.5]];portConstraint=eastwest;" vertex="1">
          <mxGeometry width="180" height="52" as="geometry" y="88" />
        </mxCell>
        <mxCell id="4bugIhrhgZ2t9Fx5-nUz-87" value="EmptyTile" parent="1" style="swimlane;fontStyle=1;align=center;verticalAlign=top;childLayout=stackLayout;horizontal=1;startSize=26;horizontalStack=0;resizeParent=1;resizeParentMax=0;resizeLast=0;collapsible=1;marginBottom=0;" vertex="1">
          <mxGeometry width="180" height="140" as="geometry" y="-520" x="1400" />
        </mxCell>
        <mxCell id="4bugIhrhgZ2t9Fx5-nUz-88" value=" " parent="4bugIhrhgZ2t9Fx5-nUz-87" style="text;strokeColor=none;fillColor=none;align=left;verticalAlign=top;spacingLeft=4;spacingRight=4;overflow=hidden;rotatable=0;points=[[0,0.5],[1,0.5]];portConstraint=eastwest;" vertex="1">
          <mxGeometry width="180" height="54" as="geometry" y="26" />
        </mxCell>
        <mxCell id="4bugIhrhgZ2t9Fx5-nUz-89" value="" parent="4bugIhrhgZ2t9Fx5-nUz-87" style="line;strokeWidth=1;fillColor=none;align=left;verticalAlign=middle;spacingTop=-1;spacingLeft=3;spacingRight=3;rotatable=0;labelPosition=right;points=[];portConstraint=eastwest;" vertex="1">
          <mxGeometry width="180" height="8" as="geometry" y="80" />
        </mxCell>
        <mxCell id="4bugIhrhgZ2t9Fx5-nUz-90" value=" " parent="4bugIhrhgZ2t9Fx5-nUz-87" style="text;strokeColor=none;fillColor=none;align=left;verticalAlign=top;spacingLeft=4;spacingRight=4;overflow=hidden;rotatable=0;points=[[0,0.5],[1,0.5]];portConstraint=eastwest;" vertex="1">
          <mxGeometry width="180" height="52" as="geometry" y="88" />
        </mxCell>
        <mxCell id="4bugIhrhgZ2t9Fx5-nUz-34" value="CannonTower" parent="1" style="swimlane;fontStyle=1;align=center;verticalAlign=top;childLayout=stackLayout;horizontal=1;startSize=26;horizontalStack=0;resizeParent=1;resizeParentMax=0;resizeLast=0;collapsible=1;marginBottom=0;" vertex="1">
          <mxGeometry width="350" height="168" as="geometry" y="510" x="-110" />
        </mxCell>
        <mxCell id="4bugIhrhgZ2t9Fx5-nUz-35" value=" " parent="4bugIhrhgZ2t9Fx5-nUz-34" style="text;strokeColor=none;fillColor=none;align=left;verticalAlign=top;spacingLeft=4;spacingRight=4;overflow=hidden;rotatable=0;points=[[0,0.5],[1,0.5]];portConstraint=eastwest;" vertex="1">
          <mxGeometry width="350" height="104" as="geometry" y="26" />
        </mxCell>
        <mxCell id="4bugIhrhgZ2t9Fx5-nUz-36" value="" parent="4bugIhrhgZ2t9Fx5-nUz-34" style="line;strokeWidth=1;fillColor=none;align=left;verticalAlign=middle;spacingTop=-1;spacingLeft=3;spacingRight=3;rotatable=0;labelPosition=right;points=[];portConstraint=eastwest;" vertex="1">
          <mxGeometry width="350" height="8" as="geometry" y="130" />
        </mxCell>
        <mxCell id="4bugIhrhgZ2t9Fx5-nUz-37" value=" " parent="4bugIhrhgZ2t9Fx5-nUz-34" style="text;strokeColor=none;fillColor=none;align=left;verticalAlign=top;spacingLeft=4;spacingRight=4;overflow=hidden;rotatable=0;points=[[0,0.5],[1,0.5]];portConstraint=eastwest;" vertex="1">
          <mxGeometry width="350" height="30" as="geometry" y="138" />
        </mxCell>
        <mxCell id="4bugIhrhgZ2t9Fx5-nUz-29" value="ArcherTower" parent="1" style="swimlane;fontStyle=1;align=center;verticalAlign=top;childLayout=stackLayout;horizontal=1;startSize=26;horizontalStack=0;resizeParent=1;resizeParentMax=0;resizeLast=0;collapsible=1;marginBottom=0;" vertex="1">
          <mxGeometry width="350" height="168" as="geometry" y="510" x="-490" />
        </mxCell>
        <mxCell id="4bugIhrhgZ2t9Fx5-nUz-30" value=" " parent="4bugIhrhgZ2t9Fx5-nUz-29" style="text;strokeColor=none;fillColor=none;align=left;verticalAlign=top;spacingLeft=4;spacingRight=4;overflow=hidden;rotatable=0;points=[[0,0.5],[1,0.5]];portConstraint=eastwest;" vertex="1">
          <mxGeometry width="350" height="104" as="geometry" y="26" />
        </mxCell>
        <mxCell id="4bugIhrhgZ2t9Fx5-nUz-31" value="" parent="4bugIhrhgZ2t9Fx5-nUz-29" style="line;strokeWidth=1;fillColor=none;align=left;verticalAlign=middle;spacingTop=-1;spacingLeft=3;spacingRight=3;rotatable=0;labelPosition=right;points=[];portConstraint=eastwest;" vertex="1">
          <mxGeometry width="350" height="8" as="geometry" y="130" />
        </mxCell>
        <mxCell id="4bugIhrhgZ2t9Fx5-nUz-32" value=" " parent="4bugIhrhgZ2t9Fx5-nUz-29" style="text;strokeColor=none;fillColor=none;align=left;verticalAlign=top;spacingLeft=4;spacingRight=4;overflow=hidden;rotatable=0;points=[[0,0.5],[1,0.5]];portConstraint=eastwest;" vertex="1">
          <mxGeometry width="350" height="30" as="geometry" y="138" />
        </mxCell>
        <mxCell id="4bugIhrhgZ2t9Fx5-nUz-75" value="&quot;abstract&quot; Tile" parent="1" style="swimlane;fontStyle=1;align=center;verticalAlign=top;childLayout=stackLayout;horizontal=1;startSize=26;horizontalStack=0;resizeParent=1;resizeParentMax=0;resizeLast=0;collapsible=1;marginBottom=0;" vertex="1">
          <mxGeometry width="280" height="260" as="geometry" y="-1000" x="1050" />
        </mxCell>
        <mxCell id="4bugIhrhgZ2t9Fx5-nUz-76" value="- tileMetricWidth: int&#xa;- tilePixelWidth : int&#xa;- tilePos : Position" parent="4bugIhrhgZ2t9Fx5-nUz-75" style="text;strokeColor=none;fillColor=none;align=left;verticalAlign=top;spacingLeft=4;spacingRight=4;overflow=hidden;rotatable=0;points=[[0,0.5],[1,0.5]];portConstraint=eastwest;" vertex="1">
          <mxGeometry width="280" height="104" as="geometry" y="26" />
        </mxCell>
        <mxCell id="4bugIhrhgZ2t9Fx5-nUz-77" value="" parent="4bugIhrhgZ2t9Fx5-nUz-75" style="line;strokeWidth=1;fillColor=none;align=left;verticalAlign=middle;spacingTop=-1;spacingLeft=3;spacingRight=3;rotatable=0;labelPosition=right;points=[];portConstraint=eastwest;" vertex="1">
          <mxGeometry width="280" height="8" as="geometry" y="130" />
        </mxCell>
        <mxCell id="4bugIhrhgZ2t9Fx5-nUz-78" value=" " parent="4bugIhrhgZ2t9Fx5-nUz-75" style="text;strokeColor=none;fillColor=none;align=left;verticalAlign=top;spacingLeft=4;spacingRight=4;overflow=hidden;rotatable=0;points=[[0,0.5],[1,0.5]];portConstraint=eastwest;" vertex="1">
          <mxGeometry width="280" height="122" as="geometry" y="138" />
        </mxCell>
        <mxCell id="uk6tNJhQ3k-IFqOZutaC-1" value="Game" parent="1" style="swimlane;fontStyle=1;align=center;verticalAlign=top;childLayout=stackLayout;horizontal=1;startSize=26;horizontalStack=0;resizeParent=1;resizeParentMax=0;resizeLast=0;collapsible=1;marginBottom=0;" vertex="1">
          <mxGeometry width="350" height="130" as="geometry" y="-1370" x="-480" />
        </mxCell>
        <mxCell id="uk6tNJhQ3k-IFqOZutaC-2" value=" " parent="uk6tNJhQ3k-IFqOZutaC-1" style="text;strokeColor=none;fillColor=none;align=left;verticalAlign=top;spacingLeft=4;spacingRight=4;overflow=hidden;rotatable=0;points=[[0,0.5],[1,0.5]];portConstraint=eastwest;" vertex="1">
          <mxGeometry width="350" height="54" as="geometry" y="26" />
        </mxCell>
        <mxCell id="uk6tNJhQ3k-IFqOZutaC-3" value="" parent="uk6tNJhQ3k-IFqOZutaC-1" style="line;strokeWidth=1;fillColor=none;align=left;verticalAlign=middle;spacingTop=-1;spacingLeft=3;spacingRight=3;rotatable=0;labelPosition=right;points=[];portConstraint=eastwest;" vertex="1">
          <mxGeometry width="350" height="8" as="geometry" y="80" />
        </mxCell>
        <mxCell id="uk6tNJhQ3k-IFqOZutaC-4" value=" " parent="uk6tNJhQ3k-IFqOZutaC-1" style="text;strokeColor=none;fillColor=none;align=left;verticalAlign=top;spacingLeft=4;spacingRight=4;overflow=hidden;rotatable=0;points=[[0,0.5],[1,0.5]];portConstraint=eastwest;" vertex="1">
          <mxGeometry width="350" height="42" as="geometry" y="88" />
        </mxCell>
        <mxCell id="-blke6RGVs8M9DFogeQN-25" value="Position" parent="1" style="swimlane;fontStyle=1;align=center;verticalAlign=top;childLayout=stackLayout;horizontal=1;startSize=26;horizontalStack=0;resizeParent=1;resizeParentMax=0;resizeLast=0;collapsible=1;marginBottom=0;" vertex="1">
          <mxGeometry width="160" height="170" as="geometry" y="-210" x="520" />
        </mxCell>
        <mxCell id="-blke6RGVs8M9DFogeQN-26" value="- position: Point2D.Double" parent="-blke6RGVs8M9DFogeQN-25" style="text;strokeColor=none;fillColor=none;align=left;verticalAlign=top;spacingLeft=4;spacingRight=4;overflow=hidden;rotatable=0;points=[[0,0.5],[1,0.5]];portConstraint=eastwest;" vertex="1">
          <mxGeometry width="160" height="34" as="geometry" y="26" />
        </mxCell>
        <mxCell id="-blke6RGVs8M9DFogeQN-27" value="" parent="-blke6RGVs8M9DFogeQN-25" style="line;strokeWidth=1;fillColor=none;align=left;verticalAlign=middle;spacingTop=-1;spacingLeft=3;spacingRight=3;rotatable=0;labelPosition=right;points=[];portConstraint=eastwest;" vertex="1">
          <mxGeometry width="160" height="8" as="geometry" y="60" />
        </mxCell>
        <mxCell id="-blke6RGVs8M9DFogeQN-28" value="&#xa;+ getTileX(): double&#xa;+ getTileY(): double&#xa;+ getDistance(): double&#xa;+ move()" parent="-blke6RGVs8M9DFogeQN-25" style="text;strokeColor=none;fillColor=none;align=left;verticalAlign=top;spacingLeft=4;spacingRight=4;overflow=hidden;rotatable=0;points=[[0,0.5],[1,0.5]];portConstraint=eastwest;" vertex="1">
          <mxGeometry width="160" height="102" as="geometry" y="68" />
        </mxCell>
        <mxCell id="4bugIhrhgZ2t9Fx5-nUz-1" value="&quot;Interface&quot; Lootable" parent="1" style="swimlane;fontStyle=1;align=center;verticalAlign=top;childLayout=stackLayout;horizontal=1;startSize=26;horizontalStack=0;resizeParent=1;resizeParentMax=0;resizeLast=0;collapsible=1;marginBottom=0;" vertex="1">
          <mxGeometry width="160" height="140" as="geometry" y="-210" x="340" />
        </mxCell>
        <mxCell id="4bugIhrhgZ2t9Fx5-nUz-2" value=" " parent="4bugIhrhgZ2t9Fx5-nUz-1" style="text;strokeColor=none;fillColor=none;align=left;verticalAlign=top;spacingLeft=4;spacingRight=4;overflow=hidden;rotatable=0;points=[[0,0.5],[1,0.5]];portConstraint=eastwest;" vertex="1">
          <mxGeometry width="160" height="26" as="geometry" y="26" />
        </mxCell>
        <mxCell id="4bugIhrhgZ2t9Fx5-nUz-3" value="" parent="4bugIhrhgZ2t9Fx5-nUz-1" style="line;strokeWidth=1;fillColor=none;align=left;verticalAlign=middle;spacingTop=-1;spacingLeft=3;spacingRight=3;rotatable=0;labelPosition=right;points=[];portConstraint=eastwest;" vertex="1">
          <mxGeometry width="160" height="8" as="geometry" y="52" />
        </mxCell>
        <mxCell id="4bugIhrhgZ2t9Fx5-nUz-4" value="+ produceGold(): void&#xa;+ retrieveGold(): int" parent="4bugIhrhgZ2t9Fx5-nUz-1" style="text;strokeColor=none;fillColor=none;align=left;verticalAlign=top;spacingLeft=4;spacingRight=4;overflow=hidden;rotatable=0;points=[[0,0.5],[1,0.5]];portConstraint=eastwest;" vertex="1">
          <mxGeometry width="160" height="80" as="geometry" y="60" />
        </mxCell>
        <mxCell id="-blke6RGVs8M9DFogeQN-52" value="&quot;Interface&quot; Placeable" parent="1" style="swimlane;fontStyle=1;align=center;verticalAlign=top;childLayout=stackLayout;horizontal=1;startSize=26;horizontalStack=0;resizeParent=1;resizeParentMax=0;resizeLast=0;collapsible=1;marginBottom=0;" vertex="1">
          <mxGeometry width="160" height="140" as="geometry" y="-210" />
        </mxCell>
        <mxCell id="-blke6RGVs8M9DFogeQN-53" value=" " parent="-blke6RGVs8M9DFogeQN-52" style="text;strokeColor=none;fillColor=none;align=left;verticalAlign=top;spacingLeft=4;spacingRight=4;overflow=hidden;rotatable=0;points=[[0,0.5],[1,0.5]];portConstraint=eastwest;" vertex="1">
          <mxGeometry width="160" height="26" as="geometry" y="26" />
        </mxCell>
        <mxCell id="-blke6RGVs8M9DFogeQN-54" value="" parent="-blke6RGVs8M9DFogeQN-52" style="line;strokeWidth=1;fillColor=none;align=left;verticalAlign=middle;spacingTop=-1;spacingLeft=3;spacingRight=3;rotatable=0;labelPosition=right;points=[];portConstraint=eastwest;" vertex="1">
          <mxGeometry width="160" height="8" as="geometry" y="52" />
        </mxCell>
        <mxCell id="-blke6RGVs8M9DFogeQN-55" value="+ method(type): type" parent="-blke6RGVs8M9DFogeQN-52" style="text;strokeColor=none;fillColor=none;align=left;verticalAlign=top;spacingLeft=4;spacingRight=4;overflow=hidden;rotatable=0;points=[[0,0.5],[1,0.5]];portConstraint=eastwest;" vertex="1">
          <mxGeometry width="160" height="80" as="geometry" y="60" />
        </mxCell>
        <mxCell id="-blke6RGVs8M9DFogeQN-56" value="&quot;Interface&quot; DealsDamage" parent="1" style="swimlane;fontStyle=1;align=center;verticalAlign=top;childLayout=stackLayout;horizontal=1;startSize=26;horizontalStack=0;resizeParent=1;resizeParentMax=0;resizeLast=0;collapsible=1;marginBottom=0;" vertex="1">
          <mxGeometry width="190" height="140" as="geometry" y="-210" x="-210" />
        </mxCell>
        <mxCell id="-blke6RGVs8M9DFogeQN-57" value=" " parent="-blke6RGVs8M9DFogeQN-56" style="text;strokeColor=none;fillColor=none;align=left;verticalAlign=top;spacingLeft=4;spacingRight=4;overflow=hidden;rotatable=0;points=[[0,0.5],[1,0.5]];portConstraint=eastwest;" vertex="1">
          <mxGeometry width="190" height="26" as="geometry" y="26" />
        </mxCell>
        <mxCell id="-blke6RGVs8M9DFogeQN-58" value="" parent="-blke6RGVs8M9DFogeQN-56" style="line;strokeWidth=1;fillColor=none;align=left;verticalAlign=middle;spacingTop=-1;spacingLeft=3;spacingRight=3;rotatable=0;labelPosition=right;points=[];portConstraint=eastwest;" vertex="1">
          <mxGeometry width="190" height="8" as="geometry" y="52" />
        </mxCell>
        <mxCell id="-blke6RGVs8M9DFogeQN-59" value="+ dealDamage(npc: NPC): void" parent="-blke6RGVs8M9DFogeQN-56" style="text;strokeColor=none;fillColor=none;align=left;verticalAlign=top;spacingLeft=4;spacingRight=4;overflow=hidden;rotatable=0;points=[[0,0.5],[1,0.5]];portConstraint=eastwest;" vertex="1">
          <mxGeometry width="190" height="80" as="geometry" y="60" />
        </mxCell>
        <mxCell id="dzhMAPh9JWSYc-e-aX1--1" value="&quot;Interface&quot; Hittable" parent="1" style="swimlane;fontStyle=1;align=center;verticalAlign=top;childLayout=stackLayout;horizontal=1;startSize=26;horizontalStack=0;resizeParent=1;resizeParentMax=0;resizeLast=0;collapsible=1;marginBottom=0;" vertex="1">
          <mxGeometry width="160" height="140" as="geometry" y="-210" x="170" />
        </mxCell>
        <mxCell id="dzhMAPh9JWSYc-e-aX1--2" value=" " parent="dzhMAPh9JWSYc-e-aX1--1" style="text;strokeColor=none;fillColor=none;align=left;verticalAlign=top;spacingLeft=4;spacingRight=4;overflow=hidden;rotatable=0;points=[[0,0.5],[1,0.5]];portConstraint=eastwest;" vertex="1">
          <mxGeometry width="160" height="26" as="geometry" y="26" />
        </mxCell>
        <mxCell id="dzhMAPh9JWSYc-e-aX1--3" value="" parent="dzhMAPh9JWSYc-e-aX1--1" style="line;strokeWidth=1;fillColor=none;align=left;verticalAlign=middle;spacingTop=-1;spacingLeft=3;spacingRight=3;rotatable=0;labelPosition=right;points=[];portConstraint=eastwest;" vertex="1">
          <mxGeometry width="160" height="8" as="geometry" y="52" />
        </mxCell>
        <mxCell id="dzhMAPh9JWSYc-e-aX1--4" value="+ method(type): type" parent="dzhMAPh9JWSYc-e-aX1--1" style="text;strokeColor=none;fillColor=none;align=left;verticalAlign=top;spacingLeft=4;spacingRight=4;overflow=hidden;rotatable=0;points=[[0,0.5],[1,0.5]];portConstraint=eastwest;" vertex="1">
          <mxGeometry width="160" height="80" as="geometry" y="60" />
        </mxCell>
        <mxCell id="dzhMAPh9JWSYc-e-aX1--5" value="MapFactory" parent="1" style="swimlane;fontStyle=1;align=center;verticalAlign=top;childLayout=stackLayout;horizontal=1;startSize=26;horizontalStack=0;resizeParent=1;resizeParentMax=0;resizeLast=0;collapsible=1;marginBottom=0;" vertex="1">
          <mxGeometry width="280" height="260" as="geometry" y="-1420" x="590" />
        </mxCell>
        <mxCell id="dzhMAPh9JWSYc-e-aX1--6" value="- widthMetric: double&#xa;- lengthMetric: double&#xa;- widthTiles: double&#xa;- lengthTiles: double&#xa;- metricTileSize: double" parent="dzhMAPh9JWSYc-e-aX1--5" style="text;strokeColor=none;fillColor=none;align=left;verticalAlign=top;spacingLeft=4;spacingRight=4;overflow=hidden;rotatable=0;points=[[0,0.5],[1,0.5]];portConstraint=eastwest;" vertex="1">
          <mxGeometry width="280" height="104" as="geometry" y="26" />
        </mxCell>
        <mxCell id="dzhMAPh9JWSYc-e-aX1--7" value="" parent="dzhMAPh9JWSYc-e-aX1--5" style="line;strokeWidth=1;fillColor=none;align=left;verticalAlign=middle;spacingTop=-1;spacingLeft=3;spacingRight=3;rotatable=0;labelPosition=right;points=[];portConstraint=eastwest;" vertex="1">
          <mxGeometry width="280" height="8" as="geometry" y="130" />
        </mxCell>
        <mxCell id="dzhMAPh9JWSYc-e-aX1--8" value="+ getMetricTileSize(): double&#xa;+ getLevelWidth():&#xa;+ buildLevel(): &#xa;+ readLevelFile(): &#xa;+ getTile(int:x, int:y):&#xa;+ isInTile(Position: pos): Tile" parent="dzhMAPh9JWSYc-e-aX1--5" style="text;strokeColor=none;fillColor=none;align=left;verticalAlign=top;spacingLeft=4;spacingRight=4;overflow=hidden;rotatable=0;points=[[0,0.5],[1,0.5]];portConstraint=eastwest;" vertex="1">
          <mxGeometry width="280" height="122" as="geometry" y="138" />
        </mxCell>
      </root>
    </mxGraphModel>
  </diagram>
  <diagram id="Wnl9b7zrHeZK-ZSoef4e" name="Modèle MapEditor">
    
    <mxGraphModel grid="1" dx="2051" dy="964" gridSize="10" guides="1" tooltips="1" connect="1" arrows="1" fold="1" page="0" pageScale="1" pageWidth="827" pageHeight="1169" math="0" shadow="0" background="none">
      
      <root>
        
        <mxCell id="8bdVRDB5kUWCbz06mZaL-0" />
        
        <mxCell id="8bdVRDB5kUWCbz06mZaL-1" parent="8bdVRDB5kUWCbz06mZaL-0" />
        
        <mxCell id="rMuMV0XwnLAIJsE7YdcY-0" value="MapEditor" parent="8bdVRDB5kUWCbz06mZaL-1" style="swimlane;fontStyle=1;align=center;verticalAlign=top;childLayout=stackLayout;horizontal=1;startSize=26;horizontalStack=0;resizeParent=1;resizeParentMax=0;resizeLast=0;collapsible=1;marginBottom=0;" vertex="1">
          
          <mxGeometry width="350" height="130" as="geometry" y="480" x="360" />
          
        </mxCell>
        
        <mxCell id="rMuMV0XwnLAIJsE7YdcY-1" value=" " parent="rMuMV0XwnLAIJsE7YdcY-0" style="text;strokeColor=none;fillColor=none;align=left;verticalAlign=top;spacingLeft=4;spacingRight=4;overflow=hidden;rotatable=0;points=[[0,0.5],[1,0.5]];portConstraint=eastwest;" vertex="1">
          
          <mxGeometry width="350" height="54" as="geometry" y="26" />
          
        </mxCell>
        
        <mxCell id="rMuMV0XwnLAIJsE7YdcY-2" value="" parent="rMuMV0XwnLAIJsE7YdcY-0" style="line;strokeWidth=1;fillColor=none;align=left;verticalAlign=middle;spacingTop=-1;spacingLeft=3;spacingRight=3;rotatable=0;labelPosition=right;points=[];portConstraint=eastwest;" vertex="1">
          
          <mxGeometry width="350" height="8" as="geometry" y="80" />
          
        </mxCell>
        
        <mxCell id="rMuMV0XwnLAIJsE7YdcY-3" value=" " parent="rMuMV0XwnLAIJsE7YdcY-0" style="text;strokeColor=none;fillColor=none;align=left;verticalAlign=top;spacingLeft=4;spacingRight=4;overflow=hidden;rotatable=0;points=[[0,0.5],[1,0.5]];portConstraint=eastwest;" vertex="1">
          
          <mxGeometry width="350" height="42" as="geometry" y="88" />
          
        </mxCell>
        
      </root>
      
    </mxGraphModel>
    
  </diagram>
  <diagram id="l9iRlWgO3z9r7Za8NW7z" name="Modèle Menu">
    
    <mxGraphModel grid="1" dx="2051" dy="1364" gridSize="10" guides="1" tooltips="1" connect="1" arrows="1" fold="1" page="0" pageScale="1" pageWidth="827" pageHeight="1169" math="0" shadow="0">
      
      <root>
        
        <mxCell id="n0aeRsXdoZvC44LYxO8T-0" />
        
        <mxCell id="n0aeRsXdoZvC44LYxO8T-1" parent="n0aeRsXdoZvC44LYxO8T-0" />
        
        <mxCell id="n0aeRsXdoZvC44LYxO8T-2" value="Menu" parent="n0aeRsXdoZvC44LYxO8T-1" style="swimlane;fontStyle=1;align=center;verticalAlign=top;childLayout=stackLayout;horizontal=1;startSize=26;horizontalStack=0;resizeParent=1;resizeParentMax=0;resizeLast=0;collapsible=1;marginBottom=0;" vertex="1">
          
          <mxGeometry width="350" height="130" as="geometry" />
          
        </mxCell>
        
        <mxCell id="n0aeRsXdoZvC44LYxO8T-3" value=" " parent="n0aeRsXdoZvC44LYxO8T-2" style="text;strokeColor=none;fillColor=none;align=left;verticalAlign=top;spacingLeft=4;spacingRight=4;overflow=hidden;rotatable=0;points=[[0,0.5],[1,0.5]];portConstraint=eastwest;" vertex="1">
          
          <mxGeometry width="350" height="54" as="geometry" y="26" />
          
        </mxCell>
        
        <mxCell id="n0aeRsXdoZvC44LYxO8T-4" value="" parent="n0aeRsXdoZvC44LYxO8T-2" style="line;strokeWidth=1;fillColor=none;align=left;verticalAlign=middle;spacingTop=-1;spacingLeft=3;spacingRight=3;rotatable=0;labelPosition=right;points=[];portConstraint=eastwest;" vertex="1">
          
          <mxGeometry width="350" height="8" as="geometry" y="80" />
          
        </mxCell>
        
        <mxCell id="n0aeRsXdoZvC44LYxO8T-5" value=" " parent="n0aeRsXdoZvC44LYxO8T-2" style="text;strokeColor=none;fillColor=none;align=left;verticalAlign=top;spacingLeft=4;spacingRight=4;overflow=hidden;rotatable=0;points=[[0,0.5],[1,0.5]];portConstraint=eastwest;" vertex="1">
          
          <mxGeometry width="350" height="42" as="geometry" y="88" />
          
        </mxCell>
        
        <mxCell id="n0aeRsXdoZvC44LYxO8T-6" value="LevelSelector" parent="n0aeRsXdoZvC44LYxO8T-1" style="swimlane;fontStyle=1;align=center;verticalAlign=top;childLayout=stackLayout;horizontal=1;startSize=26;horizontalStack=0;resizeParent=1;resizeParentMax=0;resizeLast=0;collapsible=1;marginBottom=0;" vertex="1">
          
          <mxGeometry width="350" height="130" as="geometry" y="290" />
          
        </mxCell>
        
        <mxCell id="n0aeRsXdoZvC44LYxO8T-7" value=" " parent="n0aeRsXdoZvC44LYxO8T-6" style="text;strokeColor=none;fillColor=none;align=left;verticalAlign=top;spacingLeft=4;spacingRight=4;overflow=hidden;rotatable=0;points=[[0,0.5],[1,0.5]];portConstraint=eastwest;" vertex="1">
          
          <mxGeometry width="350" height="54" as="geometry" y="26" />
          
        </mxCell>
        
        <mxCell id="n0aeRsXdoZvC44LYxO8T-8" value="" parent="n0aeRsXdoZvC44LYxO8T-6" style="line;strokeWidth=1;fillColor=none;align=left;verticalAlign=middle;spacingTop=-1;spacingLeft=3;spacingRight=3;rotatable=0;labelPosition=right;points=[];portConstraint=eastwest;" vertex="1">
          
          <mxGeometry width="350" height="8" as="geometry" y="80" />
          
        </mxCell>
        
        <mxCell id="n0aeRsXdoZvC44LYxO8T-9" value=" " parent="n0aeRsXdoZvC44LYxO8T-6" style="text;strokeColor=none;fillColor=none;align=left;verticalAlign=top;spacingLeft=4;spacingRight=4;overflow=hidden;rotatable=0;points=[[0,0.5],[1,0.5]];portConstraint=eastwest;" vertex="1">
          
          <mxGeometry width="350" height="42" as="geometry" y="88" />
          
        </mxCell>
        
      </root>
      
    </mxGraphModel>
    
  </diagram>
</mxfile>
